<?xml version="1.0" encoding="utf-8"?>
<!-- Generator: Adobe Illustrator 24.0.1, SVG Export Plug-In . SVG Version: 6.00 Build 0)  -->
<svg version="1.1" id="Layer_5" xmlns="http://www.w3.org/2000/svg" xmlns:xlink="http://www.w3.org/1999/xlink" x="0px" y="0px"
	 viewBox="0 0 428.6 244.9" style="enable-background:new 0 0 428.6 244.9;" xml:space="preserve">
<style type="text/css">
	.st0{fill:#706F73;}
	.st1{fill:url(#SVGID_1_);}
	.st2{fill:#727074;}
	.st3{fill:#FFFFFF;}
	.st4{fill:#794499;}
</style>
<g>
	<g>
		<g>
			<path class="st0" d="M69.5,193.5h-23l-4.1,9.4h-5.1l18.2-41.2h5.1l18.2,41.2h-5.1L69.5,193.5z M67.5,189L58,167.4L48.4,189H67.5z
				"/>
			<path class="st0" d="M81.2,196.9l2.9-3.7c1.9,1.9,3.9,3.3,6.1,4.4c2.2,1,4.7,1.6,7.4,1.6c2,0,3.8-0.3,5.2-1
				c1.4-0.7,2.5-1.5,3.3-2.6c0.7-1.1,1.1-2.3,1.1-3.6c0-2.1-0.9-3.7-2.6-4.8c-1.7-1.1-4.6-2.1-8.5-3c-3-0.7-5.5-1.5-7.4-2.4
				c-1.9-0.9-3.4-2.1-4.5-3.6c-1.1-1.5-1.6-3.4-1.6-5.7c0-2.2,0.6-4.1,1.8-5.9c1.2-1.8,2.8-3.2,5-4.2c2.1-1,4.4-1.5,7-1.5
				c2.9,0,5.5,0.5,7.9,1.5c2.3,1,4.5,2.5,6.6,4.3l-2.9,3.7c-1.8-1.7-3.6-3-5.6-3.9c-2-0.9-4.1-1.4-6.2-1.4c-1.6,0-3.1,0.3-4.5,1
				c-1.4,0.6-2.4,1.5-3.2,2.6c-0.8,1.1-1.1,2.3-1.1,3.5c0,2,0.9,3.5,2.6,4.5c1.7,1,4.6,2,8.5,3c4.4,1,7.7,2.5,10,4.2
				c2.3,1.8,3.5,4.4,3.5,7.7c0,2.2-0.6,4.3-1.7,6.1c-1.1,1.8-2.8,3.2-4.9,4.3c-2.2,1-4.8,1.6-7.9,1.6
				C91,203.5,85.6,201.3,81.2,196.9z"/>
			<path class="st0" d="M128.7,166h-13.9v-4.4h32.4v4.4h-13.9v36.8h-4.7V166z"/>
			<path class="st0" d="M183.7,181c-1.1,1.9-2.6,3.4-4.6,4.6s-4.2,1.9-6.6,2.2l10.5,14.9h-5.3L167.3,188h-9.1v14.8h-4.7v-41.2h16.7
				c2.8,0,5.4,0.6,7.7,1.7c2.3,1.1,4.1,2.7,5.5,4.7c1.3,2,2,4.3,2,6.8C185.4,177.1,184.8,179.2,183.7,181z M158.1,183.6h11.2
				c3.4,0,6.1-0.8,8.2-2.3c2.1-1.6,3.1-3.7,3.1-6.4c0-2.7-1-4.9-3.1-6.4c-2.1-1.6-4.8-2.3-8.2-2.3h-11.2V183.6z"/>
			<path class="st0" d="M200.5,200.6c-3.3-1.9-5.8-4.5-7.8-7.8c-1.9-3.3-2.9-6.8-2.9-10.6c0-3.8,1-7.3,2.9-10.6
				c1.9-3.3,4.5-5.9,7.8-7.8c3.3-1.9,6.8-2.9,10.5-2.9c3.8,0,7.2,1,10.5,2.9c3.2,1.9,5.8,4.5,7.7,7.8c1.9,3.3,2.9,6.8,2.9,10.6
				c0,3.8-1,7.3-2.9,10.6c-1.9,3.3-4.5,5.9-7.7,7.8c-3.2,1.9-6.7,2.9-10.5,2.9C207.3,203.5,203.8,202.6,200.5,200.6z M219.1,196.9
				c2.5-1.6,4.5-3.6,6-6.2c1.5-2.6,2.2-5.4,2.2-8.5c0-3-0.7-5.8-2.2-8.4c-1.5-2.6-3.5-4.7-6-6.2c-2.5-1.5-5.2-2.3-8.1-2.3
				c-2.9,0-5.6,0.8-8.1,2.3c-2.5,1.5-4.5,3.6-6,6.2c-1.5,2.6-2.2,5.4-2.2,8.4c0,3,0.8,5.9,2.2,8.5c1.5,2.6,3.5,4.7,6,6.2
				c2.5,1.6,5.2,2.3,8.1,2.3C213.9,199.2,216.6,198.4,219.1,196.9z"/>
			<path class="st0" d="M267.4,198.4v4.4h-27.2v-41.2h4.7v36.8H267.4z"/>
			<path class="st0" d="M300.8,193.5h-23l-4.1,9.4h-5.1l18.2-41.2h5.1l18.2,41.2H305L300.8,193.5z M298.9,189l-9.5-21.7l-9.6,21.7
				H298.9z"/>
			<path class="st0" d="M316.3,161.6h18.9c2.2,0,4.2,0.4,5.9,1.3c1.7,0.9,3.1,2.1,4,3.7s1.4,3.3,1.4,5.3c0,2.1-0.5,3.8-1.5,5.2
				c-1,1.4-2.5,2.7-4.4,3.8c2.4,1.2,4.2,2.7,5.5,4.5c1.3,1.8,2,3.9,2,6.1c0,2.2-0.5,4.1-1.6,5.8s-2.5,3.1-4.3,4
				c-1.9,1-4,1.4-6.3,1.4h-19.6V161.6z M334,179.1c2.3,0,4.1-0.6,5.6-1.9c1.5-1.2,2.2-2.8,2.2-4.7s-0.7-3.5-2.2-4.7
				c-1.5-1.2-3.3-1.9-5.6-1.9h-13v13.2H334z M334.7,198.6c2.6,0,4.7-0.7,6.3-2.1c1.6-1.4,2.4-3.2,2.4-5.5s-0.8-4.1-2.4-5.5
				c-1.6-1.4-3.7-2.1-6.3-2.1H321v15.2H334.7z"/>
			<path class="st0" d="M361.4,166v13.6h22.4v4.4h-22.4v14.3h24.8v4.4h-29.6v-41.2h29.6v4.4H361.4z"/>
		</g>
	</g>
	<g>
		<linearGradient id="SVGID_1_" gradientUnits="userSpaceOnUse" x1="176.397" y1="38.9327" x2="238.8827" y2="101.4184">
			<stop  offset="0" style="stop-color:#794499"/>
			<stop  offset="1" style="stop-color:#1E4488"/>
		</linearGradient>
		<path class="st1" d="M217.5,35.8c-24.4,0-44.2,19.8-44.2,44.2s19.8,44.2,44.2,44.2s44.2-19.8,44.2-44.2S241.8,35.8,217.5,35.8z"/>
		<g>
			<path class="st2" d="M217.3,28.1c-29.2,0-52.9,23.7-52.9,52.9s23.7,52.9,52.9,52.9s52.9-23.7,52.9-52.9S246.5,28.1,217.3,28.1z
				 M217.3,124.1c-23.8,0-43.1-19.3-43.1-43.1s19.3-43.1,43.1-43.1s43.1,19.3,43.1,43.1S241.1,124.1,217.3,124.1z"/>
		</g>
		<path class="st3" d="M229.1,93.1l-5.2-2.5l0.9-2.5l2.5-0.9l2.5,5.2c0.1,0.3,0.1,0.6-0.2,0.7C229.5,93.2,229.3,93.2,229.1,93.1z
			 M205.6,93.1l5.2-2.5l-0.9-2.5l-2.5-0.9l-2.4,5.2c-0.1,0.3,0,0.6,0.2,0.7C205.3,93.2,205.5,93.2,205.6,93.1z M204.9,68.9l2.4,5.2
			l2.5-0.9l0.9-2.5l-5.2-2.4c-0.3-0.1-0.6,0-0.7,0.2C204.8,68.5,204.8,68.7,204.9,68.9z M229.1,68.1l-5.2,2.4l0.9,2.5l2.5,0.9
			l2.5-5.2c0.1-0.3,0.1-0.6-0.2-0.7C229.5,68,229.3,68,229.1,68.1z M236.8,81.2l-13.8,5l-5,13.9c-0.1,0.3-0.5,0.5-0.8,0.3
			c-0.1-0.1-0.3-0.2-0.3-0.3l-5.1-13.9l-13.9-5c-0.3-0.1-0.5-0.5-0.3-0.8c0.1-0.1,0.2-0.3,0.3-0.3l13.9-5.1l5-13.9
			c0.1-0.3,0.5-0.5,0.8-0.3c0.1,0.1,0.3,0.2,0.3,0.3L223,75l13.9,5c0.3,0.1,0.5,0.4,0.4,0.8C237.2,81,237,81.1,236.8,81.2z"/>
		<g>
			<g>
				<path class="st4" d="M197,110.6l3.3-5l0.1,0.1c0.8,0.6,1.7,1.1,2.6,1.5l-2.7,5.3c-1.1-0.6-2.1-1.2-3.2-1.8L197,110.6z
					 M208.1,109.2c1,0.3,2.1,0.6,3.1,0.8l-1.1,5.9c-1.3-0.2-2.5-0.6-3.8-0.9L208.1,109.2z M243,65.3l5.2-3c0.6,1.1,1.2,2.3,1.8,3.5
					l-5.5,2.4C244,67.2,243.6,66.3,243,65.3z M216.5,110.6c1.1,0,2.2,0,3.2-0.1l0.6,6c-1.3,0.1-2.6,0.2-3.9,0.2L216.5,110.6z
					 M246.2,73.3l5.8-1.4c0.3,1.3,0.5,2.5,0.7,3.8l-6,0.8C246.6,75.4,246.4,74.3,246.2,73.3z M225.1,109.4c1-0.3,2.1-0.6,3.1-1
					l2.2,5.6c-1.2,0.5-2.4,0.9-3.7,1.2L225.1,109.4z M247,81.8l6,0.3c-0.1,1.3-0.2,2.6-0.4,3.8l-5.9-0.9C246.8,84,247,82.9,247,81.8
					z M232.9,106c0.9-0.6,1.8-1.2,2.6-1.9l3.7,4.7c-1,0.8-2.1,1.5-3.2,2.2L232.9,106z M245.4,90.3l5.7,2c-0.4,1.2-0.9,2.4-1.5,3.6
					l-5.4-2.6C244.6,92.3,245,91.3,245.4,90.3z M239.4,100.4c0.7-0.8,1.4-1.6,2-2.5l4.9,3.5c-0.7,1-1.6,2.1-2.4,3L239.4,100.4z"/>
			</g>
		</g>
		<g>
			<g>
				<path class="st3" d="M237.2,50.5l-3.3,5l-0.1-0.1c-0.8-0.6-1.7-1.1-2.6-1.5l2.7-5.3c1.1,0.6,2.1,1.2,3.2,1.8L237.2,50.5z
					 M226.2,51.9c-1-0.3-2.1-0.6-3.1-0.8l1.1-5.9c1.3,0.2,2.5,0.6,3.8,0.9L226.2,51.9z M191.2,95.8l-5.2,3c-0.6-1.1-1.2-2.3-1.8-3.5
					l5.5-2.4C190.2,93.9,190.7,94.9,191.2,95.8z M217.7,50.6c-1.1,0-2.2,0-3.2,0.1l-0.6-6c1.3-0.1,2.6-0.2,3.9-0.2L217.7,50.6z
					 M188,87.9l-5.8,1.4c-0.3-1.3-0.5-2.5-0.7-3.8l6-0.8C187.6,85.7,187.8,86.8,188,87.9z M209.2,51.7c-1,0.3-2.1,0.6-3.1,1
					l-2.2-5.6c1.2-0.5,2.4-0.9,3.7-1.2L209.2,51.7z M187.2,79.3l-6-0.3c0.1-1.3,0.2-2.6,0.4-3.8l5.9,0.9
					C187.4,77.2,187.3,78.2,187.2,79.3z M201.3,55.2c-0.9,0.6-1.8,1.2-2.6,1.9l-3.7-4.7c1-0.8,2.1-1.5,3.2-2.2L201.3,55.2z
					 M188.9,70.9l-5.7-2c0.4-1.2,0.9-2.4,1.5-3.6l5.4,2.6C189.6,68.9,189.2,69.9,188.9,70.9z M194.8,60.7c-0.7,0.8-1.4,1.6-2,2.5
					l-4.9-3.5c0.7-1,1.6-2.1,2.4-3L194.8,60.7z"/>
			</g>
		</g>
	</g>
</g>
</svg>
