<?xml version="1.0" encoding="utf-8"?>
<!-- Generator: Adobe Illustrator 24.0.1, SVG Export Plug-In . SVG Version: 6.00 Build 0)  -->
<svg version="1.1" id="Layer_5" xmlns="http://www.w3.org/2000/svg" xmlns:xlink="http://www.w3.org/1999/xlink" x="0px" y="0px"
	 viewBox="0 0 548.7 150" style="enable-background:new 0 0 548.7 150;" xml:space="preserve">
<style type="text/css">
	.st0{fill:#706F73;}
	.st1{fill:url(#SVGID_1_);}
	.st2{fill:#727074;}
	.st3{fill:#FFFFFF;}
	.st4{fill:#794499;}
</style>
<g>
	<g>
		<g>
			<path class="st0" d="M187.5,87.5h-23l-4.1,9.4h-5.1l18.2-41.2h5.1l18.2,41.2h-5.1L187.5,87.5z M185.5,83L176,61.4L166.4,83H185.5
				z"/>
			<path class="st0" d="M199.2,90.9l2.9-3.7c1.9,1.9,3.9,3.3,6.1,4.4c2.2,1,4.7,1.6,7.4,1.6c2,0,3.8-0.3,5.2-1
				c1.4-0.7,2.5-1.5,3.3-2.6c0.7-1.1,1.1-2.3,1.1-3.6c0-2.1-0.9-3.7-2.6-4.8c-1.7-1.1-4.6-2.1-8.5-3c-3-0.7-5.5-1.5-7.4-2.4
				c-1.9-0.9-3.4-2.1-4.5-3.6c-1.1-1.5-1.6-3.4-1.6-5.7c0-2.2,0.6-4.1,1.8-5.9c1.2-1.8,2.8-3.2,5-4.2c2.1-1,4.4-1.5,7-1.5
				c2.9,0,5.5,0.5,7.9,1.5c2.3,1,4.5,2.5,6.6,4.4l-2.9,3.7c-1.8-1.7-3.6-3-5.6-3.9c-2-0.9-4.1-1.4-6.2-1.4c-1.6,0-3.1,0.3-4.5,1
				c-1.4,0.6-2.4,1.5-3.2,2.6c-0.8,1.1-1.1,2.3-1.1,3.5c0,2,0.9,3.5,2.6,4.5s4.6,2,8.5,3c4.4,1,7.7,2.5,10,4.2
				c2.3,1.8,3.5,4.4,3.5,7.7c0,2.2-0.6,4.3-1.7,6.1c-1.1,1.8-2.8,3.2-4.9,4.3c-2.2,1-4.8,1.6-7.9,1.6
				C209,97.5,203.6,95.3,199.2,90.9z"/>
			<path class="st0" d="M246.7,60h-13.9v-4.4h32.4V60h-13.9v36.8h-4.7V60z"/>
			<path class="st0" d="M301.7,75c-1.1,1.9-2.6,3.4-4.6,4.6s-4.2,1.9-6.6,2.2L301,96.8h-5.3L285.3,82h-9.1v14.8h-4.7V55.6h16.7
				c2.8,0,5.4,0.6,7.7,1.7c2.3,1.1,4.1,2.7,5.5,4.7c1.3,2,2,4.3,2,6.8C303.4,71.1,302.8,73.2,301.7,75z M276.1,77.6h11.2
				c3.4,0,6.1-0.8,8.2-2.3c2.1-1.6,3.1-3.7,3.1-6.4c0-2.7-1-4.9-3.1-6.4c-2.1-1.6-4.8-2.3-8.2-2.3h-11.2V77.6z"/>
			<path class="st0" d="M318.5,94.6c-3.3-1.9-5.8-4.5-7.8-7.8c-1.9-3.3-2.9-6.8-2.9-10.6c0-3.8,1-7.3,2.9-10.6
				c1.9-3.3,4.5-5.9,7.8-7.8c3.3-1.9,6.8-2.9,10.5-2.9c3.8,0,7.2,1,10.5,2.9c3.2,1.9,5.8,4.5,7.7,7.8c1.9,3.3,2.9,6.8,2.9,10.6
				c0,3.8-1,7.3-2.9,10.6c-1.9,3.3-4.5,5.9-7.7,7.8c-3.2,1.9-6.7,2.9-10.5,2.9C325.3,97.5,321.8,96.6,318.5,94.6z M337.1,90.9
				c2.5-1.6,4.5-3.6,6-6.2c1.5-2.6,2.2-5.4,2.2-8.5c0-3-0.7-5.8-2.2-8.4c-1.5-2.6-3.5-4.7-6-6.2c-2.5-1.5-5.2-2.3-8.1-2.3
				c-2.9,0-5.6,0.8-8.1,2.3c-2.5,1.5-4.5,3.6-6,6.2c-1.5,2.6-2.2,5.4-2.2,8.4c0,3,0.8,5.9,2.2,8.5c1.5,2.6,3.5,4.7,6,6.2
				c2.5,1.6,5.2,2.3,8.1,2.3C331.9,93.2,334.6,92.4,337.1,90.9z"/>
			<path class="st0" d="M385.4,92.4v4.4h-27.2V55.6h4.7v36.8H385.4z"/>
			<path class="st0" d="M418.8,87.5h-23l-4.1,9.4h-5.1l18.2-41.2h5.1l18.2,41.2H423L418.8,87.5z M416.9,83l-9.5-21.7L397.8,83H416.9
				z"/>
			<path class="st0" d="M434.3,55.6h18.9c2.2,0,4.2,0.4,5.9,1.3c1.7,0.9,3.1,2.1,4,3.7c1,1.6,1.4,3.3,1.4,5.3c0,2.1-0.5,3.8-1.5,5.2
				c-1,1.4-2.5,2.7-4.4,3.8c2.4,1.2,4.2,2.7,5.5,4.5c1.3,1.8,2,3.9,2,6.1c0,2.2-0.5,4.1-1.6,5.8s-2.5,3.1-4.3,4
				c-1.9,1-4,1.4-6.3,1.4h-19.6V55.6z M452,73.1c2.3,0,4.1-0.6,5.6-1.9c1.5-1.2,2.2-2.8,2.2-4.7s-0.7-3.5-2.2-4.7
				c-1.5-1.2-3.3-1.9-5.6-1.9h-13v13.2H452z M452.7,92.6c2.6,0,4.7-0.7,6.3-2.1c1.6-1.4,2.4-3.2,2.4-5.5s-0.8-4.1-2.4-5.5
				c-1.6-1.4-3.7-2.1-6.3-2.1H439v15.2H452.7z"/>
			<path class="st0" d="M479.4,60v13.6h22.4V78h-22.4v14.3h24.8v4.4h-29.6V55.6h29.6V60H479.4z"/>
		</g>
	</g>
	<linearGradient id="SVGID_1_" gradientUnits="userSpaceOnUse" x1="38.5143" y1="32.9327" x2="101" y2="95.4184">
		<stop  offset="0" style="stop-color:#794499"/>
		<stop  offset="1" style="stop-color:#1E4488"/>
	</linearGradient>
	<path class="st1" d="M79.6,29.8c-24.4,0-44.2,19.8-44.2,44.2s19.8,44.2,44.2,44.2s44.2-19.8,44.2-44.2S103.9,29.8,79.6,29.8z"/>
	<g>
		<path class="st2" d="M79.4,22.1c-29.2,0-52.9,23.7-52.9,52.9s23.7,52.9,52.9,52.9s52.9-23.7,52.9-52.9S108.6,22.1,79.4,22.1z
			 M79.4,118.1c-23.8,0-43.1-19.3-43.1-43.1s19.3-43.1,43.1-43.1s43.1,19.3,43.1,43.1S103.2,118.1,79.4,118.1z"/>
	</g>
	<path class="st3" d="M91.3,87.1l-5.2-2.5l0.9-2.5l2.5-0.9l2.5,5.2c0.1,0.3,0.1,0.6-0.2,0.7C91.6,87.2,91.4,87.2,91.3,87.1z
		 M67.7,87.1l5.2-2.5L72,82.1l-2.5-0.9L67,86.4c-0.1,0.3,0,0.6,0.2,0.7C67.4,87.2,67.6,87.2,67.7,87.1z M67,62.9l2.4,5.2l2.5-0.9
		l0.9-2.5l-5.2-2.4c-0.3-0.1-0.6,0-0.7,0.2C66.9,62.5,66.9,62.7,67,62.9z M91.3,62.1l-5.2,2.4l0.9,2.5l2.5,0.9l2.5-5.2
		c0.1-0.3,0.1-0.6-0.2-0.7C91.6,62,91.4,62,91.3,62.1z M98.9,75.2l-13.8,5l-5,13.9c-0.1,0.3-0.5,0.5-0.8,0.3
		c-0.1-0.1-0.3-0.2-0.3-0.3l-5.1-13.9l-13.9-5c-0.3-0.1-0.5-0.5-0.3-0.8c0.1-0.1,0.2-0.3,0.3-0.3L73.9,69l5-13.9
		c0.1-0.3,0.5-0.5,0.8-0.3c0.1,0.1,0.3,0.2,0.3,0.3L85.1,69l13.9,5c0.3,0.1,0.5,0.4,0.4,0.8C99.3,75,99.1,75.1,98.9,75.2z"/>
	<g>
		<g>
			<path class="st4" d="M59.1,104.6l3.3-5l0.1,0.1c0.8,0.6,1.7,1.1,2.6,1.5l-2.7,5.3c-1.1-0.6-2.1-1.2-3.2-1.8L59.1,104.6z
				 M70.2,103.2c1,0.3,2.1,0.6,3.1,0.8l-1.1,5.9c-1.3-0.2-2.5-0.6-3.8-0.9L70.2,103.2z M105.1,59.3l5.2-3c0.6,1.1,1.2,2.3,1.8,3.5
				l-5.5,2.4C106.2,61.2,105.7,60.3,105.1,59.3z M78.7,104.6c1.1,0,2.2,0,3.2-0.1l0.6,6c-1.3,0.1-2.6,0.2-3.9,0.2L78.7,104.6z
				 M108.3,67.3l5.8-1.4c0.3,1.3,0.5,2.5,0.7,3.8l-6,0.8C108.8,69.4,108.6,68.3,108.3,67.3z M87.2,103.4c1-0.3,2.1-0.6,3.1-1
				l2.2,5.6c-1.2,0.5-2.4,0.9-3.7,1.2L87.2,103.4z M109.1,75.8l6,0.3c-0.1,1.3-0.2,2.6-0.4,3.8l-5.9-0.9
				C109,78,109.1,76.9,109.1,75.8z M95,100c0.9-0.6,1.8-1.2,2.6-1.9l3.7,4.7c-1,0.8-2.1,1.5-3.2,2.2L95,100z M107.5,84.3l5.7,2
				c-0.4,1.2-0.9,2.4-1.5,3.6l-5.4-2.6C106.7,86.3,107.1,85.3,107.5,84.3z M101.6,94.4c0.7-0.8,1.4-1.6,2-2.5l4.9,3.5
				c-0.7,1-1.6,2.1-2.4,3L101.6,94.4z"/>
		</g>
	</g>
	<g>
		<g>
			<path class="st3" d="M99.4,44.5l-3.3,5l-0.1-0.1c-0.8-0.6-1.7-1.1-2.6-1.5l2.7-5.3c1.1,0.6,2.1,1.2,3.2,1.8L99.4,44.5z
				 M88.3,45.9c-1-0.3-2.1-0.6-3.1-0.8l1.1-5.9c1.3,0.2,2.5,0.6,3.8,0.9L88.3,45.9z M53.3,89.8l-5.2,3c-0.6-1.1-1.2-2.3-1.8-3.5
				l5.5-2.4C52.3,87.9,52.8,88.9,53.3,89.8z M79.8,44.6c-1.1,0-2.2,0-3.2,0.1l-0.6-6c1.3-0.1,2.6-0.2,3.9-0.2L79.8,44.6z M50.2,81.9
				l-5.8,1.4c-0.3-1.3-0.5-2.5-0.7-3.8l6-0.8C49.7,79.7,49.9,80.8,50.2,81.9z M71.3,45.7c-1,0.3-2.1,0.6-3.1,1L66,41.2
				c1.2-0.5,2.4-0.9,3.7-1.2L71.3,45.7z M49.3,73.3l-6-0.3c0.1-1.3,0.2-2.6,0.4-3.8l5.9,0.9C49.5,71.2,49.4,72.2,49.3,73.3z
				 M63.5,49.2c-0.9,0.6-1.8,1.2-2.6,1.9l-3.7-4.7c1-0.8,2.1-1.5,3.2-2.2L63.5,49.2z M51,64.9l-5.7-2c0.4-1.2,0.9-2.4,1.5-3.6
				l5.4,2.6C51.7,62.9,51.3,63.9,51,64.9z M56.9,54.7c-0.7,0.8-1.4,1.6-2,2.5L50,53.8c0.7-1,1.6-2.1,2.4-3L56.9,54.7z"/>
		</g>
	</g>
</g>
</svg>
